<?xml version="1.0" encoding="UTF-8"?>
<svg width="23px" height="23px" viewBox="0 0 23 23" version="1.1" xmlns="http://www.w3.org/2000/svg" xmlns:xlink="http://www.w3.org/1999/xlink">
    <title>Linear/close</title>
    <defs>
        <polygon id="path-1" points="5e-05 0.0005 22.813 0.0005 22.813 22.8133 5e-05 22.8133"></polygon>
    </defs>
    <g id="Page-1" stroke="none" stroke-width="1" fill="none" fill-rule="evenodd">
        <g id="Error-l-1024" transform="translate(-877.000000, -503.000000)">
            <g id="Error-Modal" transform="translate(100.000000, 472.000000)">
                <g id="Linear/close" transform="translate(777.000000, 31.000000)">
                    <mask id="mask-2" fill="white">
                        <use xlink:href="#path-1"></use>
                    </mask>
                    <g id="Clip-2"></g>
                    <path d="M12.1143,11.4063 L22.6673,0.8533 C22.8623,0.6583 22.8623,0.3423 22.6673,0.1463 C22.4713,-0.0487 22.1553,-0.0487 21.9603,0.1463 L11.4073,10.6993 L0.8533,0.1463 C0.6583,-0.0487 0.3423,-0.0487 0.1463,0.1463 C-0.0487,0.3423 -0.0487,0.6583 0.1463,0.8533 L10.7003,11.4063 L0.1463,21.9603 C-0.0487,22.1553 -0.0487,22.4713 0.1463,22.6673 C0.2443,22.7643 0.3723,22.8133 0.5003,22.8133 C0.6283,22.8133 0.7563,22.7643 0.8533,22.6673 L11.4073,12.1133 L21.9603,22.6673 C22.0573,22.7643 22.1853,22.8133 22.3133,22.8133 C22.4413,22.8133 22.5693,22.7643 22.6673,22.6673 C22.8623,22.4713 22.8623,22.1553 22.6673,21.9603 L12.1143,11.4063 Z" id="Fill-1" fill="#000000" mask="url(#mask-2)"></path>
                </g>
            </g>
        </g>
    </g>
</svg>