<?xml version="1.0" encoding="UTF-8"?>
<svg width="26px" height="26px" viewBox="0 0 26 26" version="1.1" xmlns="http://www.w3.org/2000/svg" xmlns:xlink="http://www.w3.org/1999/xlink">
    <title></title>
    <g id="Page-1" stroke="none" stroke-width="1" fill="none" fill-rule="evenodd">
        <g id="Registration-l-1024" transform="translate(-640.000000, -533.000000)" fill="#252524" fill-rule="nonzero">
            <g id="Time-&amp;-Location" transform="translate(602.000000, 494.000000)">
                <path d="M51.359373,64.7344877 C53.6107173,64.7344877 55.6940504,64.1716514 57.609373,63.0459796 C59.5246955,61.9203078 61.0451931,60.3998103 62.1708649,58.4844877 C63.2965367,56.5691651 63.859373,54.485832 63.859373,52.2344877 C63.859373,49.9831433 63.2965367,47.8998103 62.1708649,45.9844877 C61.0451931,44.0691651 59.5246955,42.5486675 57.609373,41.4229958 C55.6940504,40.297324 53.6107173,39.7344877 51.359373,39.7344877 C49.1080286,39.7344877 47.0246955,40.297324 45.109373,41.4229958 C43.1940504,42.5486675 41.6735528,44.0691651 40.547881,45.9844877 C39.4222092,47.8998103 38.859373,49.9831433 38.859373,52.2344877 C38.859373,54.485832 39.4222092,56.5691651 40.547881,58.4844877 C41.6735528,60.3998103 43.1940504,61.9203078 45.109373,63.0459796 C47.0246955,64.1716514 49.1080286,64.7344877 51.359373,64.7344877 Z M51.3845746,63.1215845 C49.4188488,63.1215845 47.5959318,62.634353 45.9158246,61.6598909 C44.2357173,60.6854288 42.9084318,59.3665441 41.9339697,57.7032377 C40.9595076,56.0399312 40.4722762,54.2254151 40.4722762,52.2596893 C40.4722762,50.2939635 40.9595076,48.4710466 41.9339697,46.7909393 C42.9084318,45.110832 44.2273165,43.7835466 45.890623,42.8090845 C47.5539294,41.8346224 49.3684455,41.3473909 51.3341713,41.3473909 C53.2998971,41.3473909 55.1228141,41.8346224 56.8029213,42.8090845 C58.4830286,43.7835466 59.8103141,45.1024312 60.7847762,46.7657377 C61.7592383,48.4290441 62.2464697,50.2519611 62.2464697,52.2344877 C62.2464697,54.1834127 61.7592383,55.9979288 60.7847762,57.6780361 C59.8103141,59.3581433 58.4914294,60.6854288 56.828123,61.6598909 C55.1648165,62.634353 53.3503004,63.1215845 51.3845746,63.1215845 Z M55.1190422,56.7995798 L55.1900181,56.7959796 C55.3580286,56.7791788 55.4924375,56.703574 55.5932439,56.5691651 L55.5932439,56.5691651 L55.9964697,55.9643264 C56.0972762,55.8299175 56.1392786,55.6871087 56.1224778,55.535899 C56.105677,55.3846893 56.0300721,55.2586812 55.8956633,55.1578748 L55.8956633,55.1578748 L52.3170342,52.536907 L52.3170342,45.1780361 C52.3170342,45.0100256 52.2582302,44.8672159 52.140623,44.7496087 C52.0230157,44.6320014 51.880206,44.5731974 51.7121955,44.5731974 L51.7121955,44.5731974 L51.0065504,44.5731974 C50.8385399,44.5731974 50.6957302,44.6320014 50.578123,44.7496087 C50.4605157,44.8672159 50.4017117,45.0100256 50.4017117,45.1780361 L50.4017117,45.1780361 L50.4017117,53.2425522 C50.4017117,53.4441651 50.4857173,53.5953748 50.6537278,53.6961812 L50.6537278,53.6961812 L54.7363891,56.6699716 C54.8707979,56.770778 55.0220076,56.8127804 55.1900181,56.7959796 L55.1190422,56.7995798 Z" id=""></path>
            </g>
        </g>
    </g>
</svg>