<?xml version="1.0" encoding="UTF-8"?>
<svg width="25px" height="35px" viewBox="0 0 25 35" version="1.1" xmlns="http://www.w3.org/2000/svg" xmlns:xlink="http://www.w3.org/1999/xlink">
    <title></title>
    <g id="Page-1" stroke="none" stroke-width="1" fill="none" fill-rule="evenodd">
        <g id="Registration-l-1024" transform="translate(-639.000000, -617.000000)" fill="#252524" fill-rule="nonzero">
            <g id="Time-&amp;-Location" transform="translate(602.000000, 494.000000)">
                <path d="M49.5,157.208448 C50.0642364,157.208448 50.4982636,156.991435 50.8020833,156.557406 L50.8020833,156.557406 L55.1640625,150.307406 C57.3342011,147.182406 58.7664927,145.077372 59.4609375,143.992302 C60.4592011,142.429802 61.1319448,141.116868 61.4791667,140.0535 C61.8263886,138.990132 62,137.764003 62,136.375115 C62,134.11817 61.4357636,132.034837 60.3072917,130.125115 C59.1788198,128.215393 57.6597219,126.696295 55.75,125.567823 C53.8402781,124.439351 51.7569448,123.875115 49.5,123.875115 C47.2430552,123.875115 45.1597219,124.439351 43.25,125.567823 C41.3402781,126.696295 39.8211802,128.215393 38.6927083,130.125115 C37.5642364,132.034837 37,134.11817 37,136.375115 C37,137.764003 37.1736114,138.990132 37.5208333,140.0535 C37.8680552,141.116868 38.5407989,142.429802 39.5390625,143.992302 C40.2335073,145.077372 41.6657989,147.182406 43.8359375,150.307406 L43.8359375,150.307406 L48.1979167,156.557406 C48.5017364,156.991435 48.9357636,157.208448 49.5,157.208448 Z M49.5,154.73449 C48.4583333,153.215393 47.1128469,151.283969 45.4635417,148.940219 C43.3802083,145.945427 42.0130208,143.970601 41.3619792,143.01574 C40.4505208,141.540045 39.8428823,140.35732 39.5390625,139.467563 C39.2352427,138.577805 39.0833333,137.54699 39.0833333,136.375115 C39.0833333,134.986226 39.34375,133.662441 39.8645833,132.403761 C40.3854167,131.14508 41.1449656,130.016607 42.1432292,129.018344 C43.1414927,128.02008 44.2699656,127.260531 45.5286458,126.739698 C46.7873261,126.218865 48.1111114,125.958448 49.5,125.958448 C50.8888886,125.958448 52.2126739,126.218865 53.4713542,126.739698 C54.7300344,127.260531 55.8585073,128.02008 56.8567708,129.018344 C57.8550344,130.016607 58.6145833,131.14508 59.1354167,132.403761 C59.65625,133.662441 59.9166667,134.986226 59.9166667,136.375115 C59.9166667,137.54699 59.7647573,138.577805 59.4609375,139.467563 C59.1571177,140.35732 58.5494792,141.540045 57.6380208,143.01574 C56.9869792,143.970601 55.6197917,145.945427 53.5364583,148.940219 L53.5364583,148.940219 L49.5,154.73449 Z M49.5,142.625115 C51.2361114,142.625115 52.7118052,142.017476 53.9270833,140.802198 C55.1423614,139.58692 55.75,138.111226 55.75,136.375115 C55.75,134.639003 55.1423614,133.16331 53.9270833,131.948031 C52.7118052,130.732753 51.2361114,130.125115 49.5,130.125115 C47.7638886,130.125115 46.2881948,130.732753 45.0729167,131.948031 C43.8576386,133.16331 43.25,134.639003 43.25,136.375115 C43.25,138.111226 43.8576386,139.58692 45.0729167,140.802198 C46.2881948,142.017476 47.7638886,142.625115 49.5,142.625115 Z M49.5,140.541781 C48.3715281,140.541781 47.3949656,140.129455 46.5703125,139.304802 C45.7456594,138.480149 45.3333333,137.503587 45.3333333,136.375115 C45.3333333,135.246643 45.7456594,134.27008 46.5703125,133.445427 C47.3949656,132.620774 48.3715281,132.208448 49.5,132.208448 C50.6284719,132.208448 51.6050344,132.620774 52.4296875,133.445427 C53.2543406,134.27008 53.6666667,135.246643 53.6666667,136.375115 C53.6666667,137.503587 53.2543406,138.480149 52.4296875,139.304802 C51.6050344,140.129455 50.6284719,140.541781 49.5,140.541781 Z" id=""></path>
            </g>
        </g>
    </g>
</svg>